# MagicaVoxel @ Ephtracy

# group
o 

# material
mtllib Knopka.mtl
usemtl palette

# normals
vn -1 0 0
vn 1 0 0
vn 0 0 1
vn 0 0 -1
vn 0 -1 0
vn 0 1 0

# texcoords
vt 0.306641 0.5
vt 0.857422 0.5
vt 0.931641 0.5
vt 0.958984 0.5
vt 0.982422 0.5
vt 0.986328 0.5
vt 0.994141 0.5

# verts
v -2 0 2
v -2 0 -2
v -2 0.1 2
v -2 0.1 -2
v -1.9 0.1 1.9
v -1.9 0.1 -1.9
v -1.9 0.2 1.9
v -1.9 0.2 -1.9
v -1.9 0.3 1.9
v -1.9 0.3 -1.9
v -1 0.4 1
v -1 0.4 0.9
v -1 0.4 0.7
v -1 0.4 -0.8
v -1 0.4 -1
v -1 0.4 -1.1
v -1 0.5 1
v -1 0.5 0.9
v -1 0.5 0.7
v -1 0.5 -0.8
v -1 0.5 -1
v -1 0.5 -1.1
v -0.7 0.2 0.7
v -0.7 0.2 -0.8
v -0.7 0.4 0.7
v -0.7 0.4 -0.8
v 0.8 0.2 0.8
v 0.8 0.2 -0.9
v 0.8 0.3 0.8
v 0.8 0.3 -0.9
v -0.8 0.2 0.8
v -0.8 0.2 -0.9
v -0.8 0.3 0.8
v -0.8 0.3 -0.9
v 0.7 0.2 0.7
v 0.7 0.2 -0.8
v 0.7 0.4 0.7
v 0.7 0.4 -0.8
v 1 0.4 1
v 1 0.4 0.9
v 1 0.4 0.7
v 1 0.4 -0.8
v 1 0.4 -1
v 1 0.4 -1.1
v 1 0.5 1
v 1 0.5 0.9
v 1 0.5 0.7
v 1 0.5 -0.8
v 1 0.5 -1
v 1 0.5 -1.1
v 1.9 0.1 1.9
v 1.9 0.1 -1.9
v 1.9 0.2 1.9
v 1.9 0.2 -1.9
v 1.9 0.3 1.9
v 1.9 0.3 -1.9
v 2 0 2
v 2 0 -2
v 2 0.1 2
v 2 0.1 -2
v -2 0 2
v -2 0.1 2
v 2 0 2
v 2 0.1 2
v -1.9 0.1 1.9
v -1.9 0.2 1.9
v -1.9 0.3 1.9
v 1.9 0.1 1.9
v 1.9 0.2 1.9
v 1.9 0.3 1.9
v -1 0.4 1
v -1 0.5 1
v -0.9 0.4 1
v -0.9 0.5 1
v -0.7 0.4 1
v -0.7 0.5 1
v 0.7 0.4 1
v 0.7 0.5 1
v 0.9 0.4 1
v 0.9 0.5 1
v 1 0.4 1
v 1 0.5 1
v -0.7 0.2 0.7
v -0.7 0.4 0.7
v 0.7 0.2 0.7
v 0.7 0.4 0.7
v -0.8 0.2 -0.9
v -0.8 0.3 -0.9
v 0.8 0.2 -0.9
v 0.8 0.3 -0.9
v -0.8 0.2 0.8
v -0.8 0.3 0.8
v 0.8 0.2 0.8
v 0.8 0.3 0.8
v -0.7 0.2 -0.8
v -0.7 0.4 -0.8
v 0.7 0.2 -0.8
v 0.7 0.4 -0.8
v -1 0.4 -1.1
v -1 0.5 -1.1
v -0.9 0.4 -1.1
v -0.9 0.5 -1.1
v -0.7 0.4 -1.1
v -0.7 0.5 -1.1
v 0.7 0.4 -1.1
v 0.7 0.5 -1.1
v 0.9 0.4 -1.1
v 0.9 0.5 -1.1
v 1 0.4 -1.1
v 1 0.5 -1.1
v -1.9 0.1 -1.9
v -1.9 0.2 -1.9
v -1.9 0.3 -1.9
v 1.9 0.1 -1.9
v 1.9 0.2 -1.9
v 1.9 0.3 -1.9
v -2 0 -2
v -2 0.1 -2
v 2 0 -2
v 2 0.1 -2
v -2 0 2
v 2 0 2
v -2 0 -2
v 2 0 -2
v -1 0.4 1
v -0.9 0.4 1
v -0.7 0.4 1
v 0.7 0.4 1
v 0.9 0.4 1
v 1 0.4 1
v -1 0.4 0.9
v -0.9 0.4 0.9
v -0.8 0.4 0.9
v -0.7 0.4 0.9
v 0.7 0.4 0.9
v 0.8 0.4 0.9
v 0.9 0.4 0.9
v 1 0.4 0.9
v -0.9 0.4 0.8
v -0.8 0.4 0.8
v 0.8 0.4 0.8
v 0.9 0.4 0.8
v -1 0.4 0.7
v -0.9 0.4 0.7
v -0.7 0.4 0.7
v 0.7 0.4 0.7
v 0.9 0.4 0.7
v 1 0.4 0.7
v -1 0.4 -0.8
v -0.9 0.4 -0.8
v -0.7 0.4 -0.8
v 0.7 0.4 -0.8
v 0.9 0.4 -0.8
v 1 0.4 -0.8
v -0.9 0.4 -0.9
v -0.8 0.4 -0.9
v 0.8 0.4 -0.9
v 0.9 0.4 -0.9
v -1 0.4 -1
v -0.9 0.4 -1
v -0.8 0.4 -1
v -0.7 0.4 -1
v 0.7 0.4 -1
v 0.8 0.4 -1
v 0.9 0.4 -1
v 1 0.4 -1
v -1 0.4 -1.1
v -0.9 0.4 -1.1
v -0.7 0.4 -1.1
v 0.7 0.4 -1.1
v 0.9 0.4 -1.1
v 1 0.4 -1.1
v -2 0.1 2
v 2 0.1 2
v -1.9 0.1 1.9
v 1.9 0.1 1.9
v -1.9 0.1 -1.9
v 1.9 0.1 -1.9
v -2 0.1 -2
v 2 0.1 -2
v -0.8 0.2 0.8
v 0.8 0.2 0.8
v -0.7 0.2 0.7
v 0.7 0.2 0.7
v -0.7 0.2 -0.8
v 0.7 0.2 -0.8
v -0.8 0.2 -0.9
v 0.8 0.2 -0.9
v -1.9 0.3 1.9
v 1.9 0.3 1.9
v -1.7 0.3 1.7
v -0.8 0.3 1.7
v -0.7 0.3 1.7
v 0.7 0.3 1.7
v 0.8 0.3 1.7
v 1.7 0.3 1.7
v -0.7 0.3 0.9
v 0.7 0.3 0.9
v -1.7 0.3 0.8
v -0.8 0.3 0.8
v 0.8 0.3 0.8
v 1.7 0.3 0.8
v -1.7 0.3 0.7
v -0.9 0.3 0.7
v 0.9 0.3 0.7
v 1.7 0.3 0.7
v -1.7 0.3 -0.8
v -0.9 0.3 -0.8
v 0.9 0.3 -0.8
v 1.7 0.3 -0.8
v -1.7 0.3 -0.9
v -0.8 0.3 -0.9
v 0.8 0.3 -0.9
v 1.7 0.3 -0.9
v -0.7 0.3 -1
v 0.7 0.3 -1
v -1.7 0.3 -1.7
v -0.8 0.3 -1.7
v -0.7 0.3 -1.7
v 0.7 0.3 -1.7
v 0.8 0.3 -1.7
v 1.7 0.3 -1.7
v -1.9 0.3 -1.9
v 1.9 0.3 -1.9
v -1 0.5 1
v -0.9 0.5 1
v -0.7 0.5 1
v 0.7 0.5 1
v 0.9 0.5 1
v 1 0.5 1
v -1 0.5 0.9
v -0.9 0.5 0.9
v -0.8 0.5 0.9
v -0.7 0.5 0.9
v 0.7 0.5 0.9
v 0.8 0.5 0.9
v 0.9 0.5 0.9
v 1 0.5 0.9
v -0.9 0.5 0.8
v -0.8 0.5 0.8
v 0.8 0.5 0.8
v 0.9 0.5 0.8
v -1 0.5 0.7
v -0.9 0.5 0.7
v -0.7 0.5 0.7
v 0.7 0.5 0.7
v 0.9 0.5 0.7
v 1 0.5 0.7
v -0.6 0.5 0.6
v 0.6 0.5 0.6
v -0.0999999 0.5 0.0999999
v 0.1 0.5 0.0999999
v -0.2 0.5 -2.38419e-07
v -0.0999999 0.5 -2.38419e-07
v 0.1 0.5 -2.38419e-07
v 0.2 0.5 -2.38419e-07
v -0.2 0.5 -0.1
v -0.0999999 0.5 -0.1
v 0.1 0.5 -0.1
v 0.2 0.5 -0.1
v -0.0999999 0.5 -0.2
v 0.1 0.5 -0.2
v -0.6 0.5 -0.7
v 0.6 0.5 -0.7
v -1 0.5 -0.8
v -0.9 0.5 -0.8
v -0.7 0.5 -0.8
v 0.7 0.5 -0.8
v 0.9 0.5 -0.8
v 1 0.5 -0.8
v -0.9 0.5 -0.9
v -0.8 0.5 -0.9
v 0.8 0.5 -0.9
v 0.9 0.5 -0.9
v -1 0.5 -1
v -0.9 0.5 -1
v -0.8 0.5 -1
v -0.7 0.5 -1
v 0.7 0.5 -1
v 0.8 0.5 -1
v 0.9 0.5 -1
v 1 0.5 -1
v -1 0.5 -1.1
v -0.9 0.5 -1.1
v -0.7 0.5 -1.1
v 0.7 0.5 -1.1
v 0.9 0.5 -1.1
v 1 0.5 -1.1

# faces
f 3/1/1 2/1/1 1/1/1
f 4/1/1 2/1/1 3/1/1
f 7/7/1 6/7/1 5/7/1
f 8/7/1 6/7/1 7/7/1
f 9/5/1 8/5/1 7/5/1
f 10/5/1 8/5/1 9/5/1
f 17/7/1 12/7/1 11/7/1
f 18/2/1 13/2/1 12/2/1
f 18/7/1 12/7/1 17/7/1
f 19/6/1 14/6/1 13/6/1
f 19/2/1 13/2/1 18/2/1
f 20/2/1 15/2/1 14/2/1
f 20/6/1 14/6/1 19/6/1
f 21/7/1 16/7/1 15/7/1
f 21/2/1 15/2/1 20/2/1
f 22/7/1 16/7/1 21/7/1
f 25/2/1 24/2/1 23/2/1
f 26/2/1 24/2/1 25/2/1
f 29/7/1 28/7/1 27/7/1
f 30/7/1 28/7/1 29/7/1
f 31/7/2 32/7/2 33/7/2
f 33/7/2 32/7/2 34/7/2
f 35/2/2 36/2/2 37/2/2
f 37/2/2 36/2/2 38/2/2
f 39/7/2 40/7/2 45/7/2
f 40/2/2 41/2/2 46/2/2
f 45/7/2 40/7/2 46/7/2
f 41/6/2 42/6/2 47/6/2
f 46/2/2 41/2/2 47/2/2
f 42/2/2 43/2/2 48/2/2
f 47/6/2 42/6/2 48/6/2
f 43/7/2 44/7/2 49/7/2
f 48/2/2 43/2/2 49/2/2
f 49/7/2 44/7/2 50/7/2
f 51/7/2 52/7/2 53/7/2
f 53/7/2 52/7/2 54/7/2
f 53/5/2 54/5/2 55/5/2
f 55/5/2 54/5/2 56/5/2
f 57/1/2 58/1/2 59/1/2
f 59/1/2 58/1/2 60/1/2
f 63/1/3 62/1/3 61/1/3
f 64/1/3 62/1/3 63/1/3
f 68/7/3 66/7/3 65/7/3
f 69/5/3 67/5/3 66/5/3
f 69/7/3 66/7/3 68/7/3
f 70/5/3 67/5/3 69/5/3
f 73/7/3 72/7/3 71/7/3
f 74/7/3 72/7/3 73/7/3
f 75/2/3 74/2/3 73/2/3
f 76/2/3 74/2/3 75/2/3
f 77/6/3 76/6/3 75/6/3
f 78/6/3 76/6/3 77/6/3
f 79/2/3 78/2/3 77/2/3
f 80/2/3 78/2/3 79/2/3
f 81/7/3 80/7/3 79/7/3
f 82/7/3 80/7/3 81/7/3
f 85/2/3 84/2/3 83/2/3
f 86/2/3 84/2/3 85/2/3
f 89/7/3 88/7/3 87/7/3
f 90/7/3 88/7/3 89/7/3
f 91/7/4 92/7/4 93/7/4
f 93/7/4 92/7/4 94/7/4
f 95/2/4 96/2/4 97/2/4
f 97/2/4 96/2/4 98/2/4
f 99/7/4 100/7/4 101/7/4
f 101/7/4 100/7/4 102/7/4
f 101/2/4 102/2/4 103/2/4
f 103/2/4 102/2/4 104/2/4
f 103/6/4 104/6/4 105/6/4
f 105/6/4 104/6/4 106/6/4
f 105/2/4 106/2/4 107/2/4
f 107/2/4 106/2/4 108/2/4
f 107/7/4 108/7/4 109/7/4
f 109/7/4 108/7/4 110/7/4
f 111/7/4 112/7/4 114/7/4
f 112/5/4 113/5/4 115/5/4
f 114/7/4 112/7/4 115/7/4
f 115/5/4 113/5/4 116/5/4
f 117/1/4 118/1/4 119/1/4
f 119/1/4 118/1/4 120/1/4
f 123/1/5 122/1/5 121/1/5
f 124/1/5 122/1/5 123/1/5
f 131/7/5 126/7/5 125/7/5
f 132/2/5 127/2/5 126/2/5
f 132/7/5 126/7/5 131/7/5
f 133/2/5 127/2/5 132/2/5
f 134/6/5 128/6/5 127/6/5
f 134/2/5 127/2/5 133/2/5
f 135/2/5 129/2/5 128/2/5
f 135/6/5 128/6/5 134/6/5
f 136/2/5 129/2/5 135/2/5
f 137/7/5 130/7/5 129/7/5
f 137/2/5 129/2/5 136/2/5
f 138/7/5 130/7/5 137/7/5
f 139/2/5 133/2/5 132/2/5
f 139/2/5 132/2/5 131/2/5
f 140/6/5 136/6/5 135/6/5
f 140/2/5 133/2/5 139/2/5
f 140/6/5 134/6/5 133/6/5
f 140/6/5 135/6/5 134/6/5
f 141/2/5 137/2/5 136/2/5
f 141/6/5 136/6/5 140/6/5
f 141/2/5 138/2/5 137/2/5
f 142/2/5 138/2/5 141/2/5
f 143/2/5 139/2/5 131/2/5
f 144/6/5 140/6/5 139/6/5
f 144/2/5 139/2/5 143/2/5
f 144/6/5 141/6/5 140/6/5
f 144/6/5 142/6/5 141/6/5
f 145/6/5 142/6/5 144/6/5
f 146/6/5 142/6/5 145/6/5
f 147/2/5 138/2/5 142/2/5
f 147/6/5 142/6/5 146/6/5
f 148/2/5 138/2/5 147/2/5
f 149/6/5 144/6/5 143/6/5
f 149/6/5 145/6/5 144/6/5
f 150/6/5 145/6/5 149/6/5
f 151/6/5 145/6/5 150/6/5
f 152/6/5 148/6/5 147/6/5
f 152/6/5 147/6/5 146/6/5
f 153/6/5 148/6/5 152/6/5
f 154/6/5 148/6/5 153/6/5
f 155/6/5 151/6/5 150/6/5
f 155/2/5 150/2/5 149/2/5
f 155/6/5 152/6/5 151/6/5
f 155/6/5 153/6/5 152/6/5
f 156/6/5 153/6/5 155/6/5
f 157/6/5 153/6/5 156/6/5
f 158/2/5 154/2/5 153/2/5
f 158/6/5 153/6/5 157/6/5
f 159/2/5 155/2/5 149/2/5
f 159/2/5 156/2/5 155/2/5
f 160/2/5 156/2/5 159/2/5
f 161/6/5 157/6/5 156/6/5
f 161/2/5 156/2/5 160/2/5
f 162/6/5 157/6/5 161/6/5
f 163/6/5 157/6/5 162/6/5
f 164/2/5 158/2/5 157/2/5
f 164/6/5 157/6/5 163/6/5
f 165/2/5 154/2/5 158/2/5
f 165/2/5 158/2/5 164/2/5
f 166/2/5 154/2/5 165/2/5
f 167/7/5 160/7/5 159/7/5
f 168/2/5 161/2/5 160/2/5
f 168/7/5 160/7/5 167/7/5
f 168/2/5 162/2/5 161/2/5
f 169/6/5 163/6/5 162/6/5
f 169/2/5 162/2/5 168/2/5
f 170/2/5 164/2/5 163/2/5
f 170/6/5 163/6/5 169/6/5
f 170/2/5 165/2/5 164/2/5
f 171/7/5 166/7/5 165/7/5
f 171/2/5 165/2/5 170/2/5
f 172/7/5 166/7/5 171/7/5
f 173/1/6 174/1/6 175/1/6
f 175/1/6 174/1/6 176/1/6
f 173/1/6 175/1/6 177/1/6
f 176/1/6 174/1/6 178/1/6
f 173/1/6 177/1/6 179/1/6
f 177/1/6 178/1/6 179/1/6
f 178/1/6 174/1/6 180/1/6
f 179/1/6 178/1/6 180/1/6
f 181/7/6 182/7/6 183/7/6
f 183/7/6 182/7/6 184/7/6
f 181/7/6 183/7/6 185/7/6
f 184/7/6 182/7/6 186/7/6
f 181/7/6 185/7/6 187/7/6
f 185/7/6 186/7/6 187/7/6
f 186/7/6 182/7/6 188/7/6
f 187/7/6 186/7/6 188/7/6
f 189/5/6 190/5/6 191/5/6
f 191/5/6 190/5/6 192/5/6
f 192/5/6 190/5/6 193/5/6
f 193/5/6 190/5/6 194/5/6
f 194/5/6 190/5/6 195/5/6
f 195/5/6 190/5/6 196/5/6
f 192/7/6 193/7/6 197/7/6
f 193/3/6 194/3/6 197/3/6
f 194/7/6 195/7/6 198/7/6
f 197/3/6 194/3/6 198/3/6
f 189/5/6 191/5/6 199/5/6
f 191/3/6 192/3/6 199/3/6
f 197/7/6 198/7/6 200/7/6
f 199/3/6 192/3/6 200/3/6
f 192/7/6 197/7/6 200/7/6
f 198/7/6 195/7/6 201/7/6
f 200/7/6 198/7/6 201/7/6
f 195/3/6 196/3/6 201/3/6
f 196/5/6 190/5/6 202/5/6
f 201/3/6 196/3/6 202/3/6
f 199/7/6 200/7/6 203/7/6
f 189/5/6 199/5/6 203/5/6
f 203/7/6 200/7/6 204/7/6
f 201/7/6 202/7/6 205/7/6
f 202/5/6 190/5/6 206/5/6
f 205/7/6 202/7/6 206/7/6
f 189/5/6 203/5/6 207/5/6
f 203/3/6 204/3/6 207/3/6
f 204/7/6 200/7/6 208/7/6
f 207/3/6 204/3/6 208/3/6
f 201/7/6 205/7/6 209/7/6
f 205/3/6 206/3/6 209/3/6
f 206/5/6 190/5/6 210/5/6
f 209/3/6 206/3/6 210/3/6
f 189/5/6 207/5/6 211/5/6
f 207/7/6 208/7/6 211/7/6
f 208/7/6 200/7/6 212/7/6
f 211/7/6 208/7/6 212/7/6
f 201/7/6 209/7/6 213/7/6
f 209/7/6 210/7/6 213/7/6
f 210/5/6 190/5/6 214/5/6
f 213/7/6 210/7/6 214/7/6
f 212/7/6 213/7/6 215/7/6
f 215/7/6 213/7/6 216/7/6
f 189/5/6 211/5/6 217/5/6
f 211/3/6 212/3/6 217/3/6
f 212/7/6 215/7/6 218/7/6
f 217/3/6 212/3/6 218/3/6
f 215/3/6 216/3/6 219/3/6
f 218/7/6 215/7/6 219/7/6
f 216/7/6 213/7/6 220/7/6
f 219/3/6 216/3/6 220/3/6
f 213/3/6 214/3/6 221/3/6
f 220/7/6 213/7/6 221/7/6
f 214/5/6 190/5/6 222/5/6
f 221/3/6 214/3/6 222/3/6
f 218/5/6 219/5/6 223/5/6
f 220/5/6 221/5/6 223/5/6
f 221/5/6 222/5/6 223/5/6
f 189/5/6 217/5/6 223/5/6
f 219/5/6 220/5/6 223/5/6
f 217/5/6 218/5/6 223/5/6
f 222/5/6 190/5/6 224/5/6
f 223/5/6 222/5/6 224/5/6
f 225/7/6 226/7/6 231/7/6
f 226/2/6 227/2/6 232/2/6
f 231/7/6 226/7/6 232/7/6
f 232/2/6 227/2/6 233/2/6
f 227/6/6 228/6/6 234/6/6
f 233/2/6 227/2/6 234/2/6
f 228/2/6 229/2/6 235/2/6
f 234/6/6 228/6/6 235/6/6
f 235/2/6 229/2/6 236/2/6
f 229/7/6 230/7/6 237/7/6
f 236/2/6 229/2/6 237/2/6
f 237/7/6 230/7/6 238/7/6
f 232/2/6 233/2/6 239/2/6
f 231/2/6 232/2/6 239/2/6
f 235/6/6 236/6/6 240/6/6
f 239/2/6 233/2/6 240/2/6
f 233/6/6 234/6/6 240/6/6
f 234/6/6 235/6/6 240/6/6
f 236/2/6 237/2/6 241/2/6
f 240/6/6 236/6/6 241/6/6
f 237/2/6 238/2/6 241/2/6
f 241/2/6 238/2/6 242/2/6
f 231/2/6 239/2/6 243/2/6
f 239/6/6 240/6/6 244/6/6
f 243/2/6 239/2/6 244/2/6
f 240/6/6 241/6/6 244/6/6
f 241/6/6 242/6/6 244/6/6
f 244/6/6 242/6/6 245/6/6
f 245/6/6 242/6/6 246/6/6
f 242/2/6 238/2/6 247/2/6
f 246/6/6 242/6/6 247/6/6
f 247/2/6 238/2/6 248/2/6
f 245/4/6 246/4/6 249/4/6
f 249/4/6 246/4/6 250/4/6
f 249/2/6 250/2/6 251/2/6
f 251/2/6 250/2/6 252/2/6
f 249/2/6 251/2/6 253/2/6
f 251/7/6 252/7/6 254/7/6
f 253/2/6 251/2/6 254/2/6
f 252/2/6 250/2/6 255/2/6
f 254/7/6 252/7/6 255/7/6
f 255/2/6 250/2/6 256/2/6
f 253/7/6 254/7/6 257/7/6
f 249/2/6 253/2/6 257/2/6
f 255/7/6 256/7/6 257/7/6
f 254/7/6 255/7/6 257/7/6
f 257/7/6 256/7/6 258/7/6
f 258/7/6 256/7/6 259/7/6
f 256/2/6 250/2/6 260/2/6
f 259/7/6 256/7/6 260/7/6
f 258/7/6 259/7/6 261/7/6
f 257/2/6 258/2/6 261/2/6
f 259/2/6 260/2/6 262/2/6
f 261/7/6 259/7/6 262/7/6
f 245/4/6 249/4/6 263/4/6
f 249/2/6 257/2/6 263/2/6
f 261/2/6 262/2/6 263/2/6
f 257/2/6 261/2/6 263/2/6
f 262/2/6 260/2/6 264/2/6
f 263/2/6 262/2/6 264/2/6
f 250/4/6 246/4/6 264/4/6
f 260/2/6 250/2/6 264/2/6
f 243/6/6 244/6/6 265/6/6
f 244/6/6 245/6/6 265/6/6
f 265/6/6 245/6/6 266/6/6
f 263/4/6 264/4/6 267/4/6
f 266/6/6 245/6/6 267/6/6
f 245/4/6 263/4/6 267/4/6
f 264/4/6 246/4/6 268/4/6
f 267/4/6 264/4/6 268/4/6
f 246/6/6 247/6/6 268/6/6
f 247/6/6 248/6/6 268/6/6
f 268/6/6 248/6/6 269/6/6
f 269/6/6 248/6/6 270/6/6
f 266/6/6 267/6/6 271/6/6
f 265/2/6 266/2/6 271/2/6
f 267/6/6 268/6/6 271/6/6
f 268/6/6 269/6/6 271/6/6
f 271/6/6 269/6/6 272/6/6
f 272/6/6 269/6/6 273/6/6
f 269/2/6 270/2/6 274/2/6
f 273/6/6 269/6/6 274/6/6
f 265/2/6 271/2/6 275/2/6
f 271/2/6 272/2/6 275/2/6
f 275/2/6 272/2/6 276/2/6
f 272/6/6 273/6/6 277/6/6
f 276/2/6 272/2/6 277/2/6
f 277/6/6 273/6/6 278/6/6
f 278/6/6 273/6/6 279/6/6
f 273/2/6 274/2/6 280/2/6
f 279/6/6 273/6/6 280/6/6
f 274/2/6 270/2/6 281/2/6
f 280/2/6 274/2/6 281/2/6
f 281/2/6 270/2/6 282/2/6
f 275/7/6 276/7/6 283/7/6
f 276/2/6 277/2/6 284/2/6
f 283/7/6 276/7/6 284/7/6
f 277/2/6 278/2/6 284/2/6
f 278/6/6 279/6/6 285/6/6
f 284/2/6 278/2/6 285/2/6
f 279/2/6 280/2/6 286/2/6
f 285/6/6 279/6/6 286/6/6
f 280/2/6 281/2/6 286/2/6
f 281/7/6 282/7/6 287/7/6
f 286/2/6 281/2/6 287/2/6
f 287/7/6 282/7/6 288/7/6
